<?xml version="1.0" standalone="no"?>
<!DOCTYPE svg PUBLIC "-//W3C//DTD SVG 1.1//EN" "http://www.w3.org/Graphics/SVG/1.1/DTD/svg11.dtd" >
<svg xmlns="http://www.w3.org/2000/svg">
<metadata>
This is a custom SVG webfont generated by Font Squirrel.
Copyright   : Copyright c 2011 Sorkin Type Co wwwsorkintypecom with Reserved Font Name Trykker
Designer    : Magnus Gaarde
Foundry     : Magnus Gaarde
Foundry URL : wwwsorkintypecom
</metadata>
<defs>
<font id="TrykkerRegular" horiz-adv-x="1196" >
<font-face units-per-em="2048" ascent="1638" descent="-410" />
<missing-glyph horiz-adv-x="682" />
<glyph unicode=" "  horiz-adv-x="682" />
<glyph unicode="&#x09;" horiz-adv-x="682" />
<glyph unicode="&#xa0;" horiz-adv-x="682" />
<glyph unicode="," horiz-adv-x="512" d="M122 -288q2 0 19 19t37 47q52 75 52 121.5t-13.5 71.5t-28.5 43l-30 34q-13 17 -13 41t10.5 45.5t27.5 39.5q40 42 72 42t55 -13t41 -33q39 -45 39 -95t-9.5 -95.5t-25.5 -83.5q-61 -148 -189 -235q-40 9 -44 51z" />
<glyph unicode="-" horiz-adv-x="650" d="M115 506q-21 62 14 118h447q14 -58 -13 -118h-448z" />
<glyph unicode="." horiz-adv-x="512" d="M133 93q0 22 9 44t25 39q36 40 70 40t57 -9t42 -25q42 -35 42 -67.5t-10 -54.5t-28 -40q-39 -41 -88 -41q-42 0 -69.5 25t-38.5 46t-11 43z" />
<glyph unicode="0" horiz-adv-x="1362" d="M137 532q0 118 40.5 222t112.5 180q156 161 389 161q247 0 397 -161q144 -156 144 -406q0 -231 -150 -394q-155 -170 -391 -170q-245 0 -397 167q-145 159 -145 401zM297 535q0 -91 29 -171t82 -142q119 -139 293 -139q163 0 264 135q95 127 95 310q0 198 -111 322 q-113 127 -291 127q-163 0 -263 -127q-98 -124 -98 -315z" />
<glyph unicode="1" horiz-adv-x="851" d="M101 856l11 86l444 155l25 -26l-43 -167v-776l233 -34l7 -14l-14 -80h-644l-4 9l9 76l253 43v763l-270 -49z" />
<glyph unicode="2" horiz-adv-x="1192" d="M140 101q366 246 498 394q114 129 114 244q0 89 -58 147q-63 63 -150 63q-190 0 -333 -118q-66 42 -66 92q162 131 357 165q45 7 106 7t127.5 -21t116.5 -60q107 -86 107 -230q0 -158 -136 -300q-90 -94 -226 -194l-250 -182q552 0 565 47l40 162q37 11 82 6l33 -323 h-892q-43 35 -35 101z" />
<glyph unicode="3" horiz-adv-x="1023" d="M132 961q82 72 210 113q66 21 148.5 21t147 -23t109.5 -64q93 -85 93 -219q0 -223 -289 -358q209 -13 305 -117q77 -85 77 -224q0 -211 -175 -340q-165 -122 -395 -122q-100 0 -181 33q-27 11 -45 26v9q0 92 51 146q77 -77 186 -104q34 -9 80.5 -9t100.5 25t95 68 q88 94 88 226q0 145 -88 226q-77 70 -171 70t-156 -19q-24 37 -24 63q0 33 2 39q214 64 302 209q35 57 35 114.5t-12.5 93.5t-37.5 64q-55 60 -146 60q-90 0 -153 -34t-91 -60q-61 25 -66 87z" />
<glyph unicode="4" horiz-adv-x="1193" d="M83 110q149 146 333 446q193 330 304 570q99 -42 179 -115q-32 -56 -81 -133q-148 -224 -224 -330q-257 -349 -352 -449l474 14v398q51 35 169 69v-463q143 9 250 29q3 -98 -23 -146h-227v-337q-18 -16 -41 -27q-53 -25 -128 -29v393h-586q-42 54 -47 110z" />
<glyph unicode="5" horiz-adv-x="1024" d="M76 -243q5 86 82 142q131 -170 301 -170q126 0 207 101q79 100 79 254q0 233 -196 300q-65 23 -151 23t-226 -28q-30 12 -40 50l80 619q301 -14 405 -14t132.5 1.5t44.5 5.5q27 6 31 24l21 68h24q35 0 54 -12l-45 -249q-30 -5 -180 -5t-393 23l-68 -398q157 38 288 38 q173 0 295 -108q126 -112 126 -277q0 -250 -183 -393q-164 -129 -397 -129q-132 0 -222 67q-41 29 -69 67z" />
<glyph unicode="6" d="M114 485q0 340 252 582q216 207 517 275q32 -47 18 -99q-237 -64 -400 -227q-199 -199 -199 -500q0 -208 101 -330q95 -114 244 -114q123 0 205 93q76 86 76 212q0 154 -82 238q-77 77 -207.5 77t-231.5 -119q-43 0 -54 47q47 81 145 145q110 73 210 73t168.5 -28.5 t116.5 -79.5q98 -103 98 -273q0 -199 -139 -343q-142 -150 -359 -150q-218 0 -353 158q-126 148 -126 363z" />
<glyph unicode="7" d="M115 1048h962q7 -13 12 -21.5t8 -16.5q5 -15 5 -49q-102 -170 -178 -320l-126 -257q-50 -108 -102 -230l-103 -260q-52 -136 -100 -283q-56 2 -103.5 24.5t-73.5 49.5l244 513q255 503 374 719q-456 -8 -537 -17t-102 -16q-29 -9 -34 -34l-31 -144q-23 -7 -42 -7t-36 2z " />
<glyph unicode="8" d="M132 313q0 222 290 398q-126 73 -171 125q-85 98 -85 191t35 160.5t95 114.5q127 98 319 98q182 0 289 -90q98 -84 98 -215q0 -138 -174 -275q-51 -40 -109 -78q161 -85 223 -143.5t92 -114t30 -139.5t-37 -158t-103 -123q-133 -100 -351 -100q-206 0 -327 104 q-114 98 -114 245zM317 332q0 -108 73 -180q83 -82 225 -82q111 0 191 60q93 70 93 191q0 123 -239 257l-148 81q-195 -121 -195 -327zM324 1089.5q0 -47.5 25 -89.5t66 -78q60 -53 205 -129q164 103 192 207q10 36 10 79.5t-17.5 82.5t-49.5 68q-70 63 -180 63 q-178 0 -233 -119q-18 -37 -18 -84.5z" />
<glyph unicode="9" d="M112 603q0 200 139 343q145 149 356 149q235 0 367 -158q120 -142 120 -362q0 -378 -256 -646q-226 -236 -526 -306q-31 49 -18 99q240 70 408 257q201 224 201 565q0 209 -101 329q-97 114 -249 114q-120 0 -200 -93q-76 -89 -76 -196.5t22 -175.5t61 -112 q79 -89 215 -89q106 0 177 107q20 30 37 60q43 0 54 -48q-49 -101 -136 -176q-103 -89 -201 -89t-168 31.5t-120 88.5q-106 119 -106 308z" />
<glyph unicode="A" horiz-adv-x="1535" d="M24 9l10 76l153 43l486 1352q50 26 184 48l499 -1400l160 -34l7 -14l-14 -80h-479l-4 9l9 76l129 43l-143 405h-566l-136 -405l136 -34l7 -14l-14 -80h-418zM496 651h483l-248 666z" />
<glyph unicode="B" horiz-adv-x="1366" d="M102 1411l14 81h569q246 0 365.5 -88t119.5 -273q0 -111 -68 -200q-69 -90 -179 -106v-12q323 -49 323 -382q0 -150 -88 -255q-114 -134 -342 -166q-66 -10 -129 -10h-573l-5 9l10 76l130 43v1236l-140 34zM436 144q86 -31 200 -31t185.5 19.5t121.5 59.5q104 83 104 239 q0 218 -207 281q-69 21 -151.5 21t-252.5 -15v-574zM436 828l105 6l105 4q59 3 100.5 3t76.5 16.5t68 50.5q81 83 81 212q0 256 -332 256q-101 0 -204 -20v-528z" />
<glyph unicode="C" horiz-adv-x="1537" d="M78 683q0 184 56.5 332.5t158.5 258t244.5 172t285.5 62.5q318 0 527 -108l-74 -319q-56 0 -87 11q0 128 -11 183q-71 51 -188 73.5t-222.5 22.5t-192 -39t-151.5 -115q-141 -165 -141 -441q0 -328 178 -516q159 -168 391 -168q196 0 344 112q13 45 17 194q14 5 29 8 l27 4q14 2 28 2l55 -313q-127 -76 -324 -115q-103 -20 -224 -20t-217 27t-175.5 75.5t-141.5 116t-104 149.5q-88 167 -88 351z" />
<glyph unicode="D" horiz-adv-x="1532" d="M38 9l10 76l148 43v1225l-144 38l-7 14l14 87h645q318 0 507 -204q187 -203 187 -538q0 -323 -222 -539q-217 -211 -532 -211h-601zM380 153q138 -23 277.5 -23t234 34.5t162.5 104.5q142 148 142 425q0 326 -168 510q-155 171 -400 171q-116 0 -248 -22v-1200z" />
<glyph unicode="E" horiz-adv-x="1361" d="M87 9l9 76l144 43v1232l-139 33l-7 14l14 85h1036l-34 -304q-14 -3 -28 -3q-25 0 -55 8l-58 182h-540v-554h407l50 142q14 3 33 3t44 -3v-402q-21 -3 -40.5 -3t-36.5 3l-50 141h-407v-585h583l85 243q17 5 36.5 5t41.5 -5l9 -360h-1092z" />
<glyph unicode="F" horiz-adv-x="1361" d="M107 9l9 76l144 43v1236l-139 34l-7 13l14 81h1076l-34 -304q-14 -3 -28 -3q-25 0 -55 8l-58 182h-580v-592h427l45 137q20 3 39 3t38 -3v-389q-21 -6 -40 -6t-37 6l-50 133h-422v-536l216 -34l7 -14l-14 -80h-546z" />
<glyph unicode="G" horiz-adv-x="1532" d="M78 691.5q0 109.5 25.5 217.5t72.5 200t114.5 165.5t151.5 125.5q176 108 394 108q202 0 372 -54q98 -32 154 -67l-72 -304q-11 -2 -22 -2q-29 0 -59 14q0 32 -2 61l-4 56q-2 28 -7 48q-50 68 -294 101q-73 10 -155.5 10t-167 -40t-150.5 -119q-146 -173 -146 -465 q0 -296 179 -483q104 -110 240 -150q65 -20 130.5 -20t123 10.5t104.5 27.5q87 30 146 80v346l-309 31v92h544v-81l-47 -30v-419q-158 -144 -451 -179q-67 -8 -157.5 -8t-184.5 25.5t-174 72.5t-144.5 112t-110 145t-70 171.5t-24.5 201z" />
<glyph unicode="H" horiz-adv-x="1535" d="M48 9l10 76l143 43v1236l-139 34l-7 13l14 81h476l5 -9l-9 -76l-151 -43v-549h756v549l-140 34l-7 13l15 81h475l5 -9l-9 -76l-151 -43v-1236l146 -34l7 -14l-14 -80h-476l-4 9l9 76l144 43v570h-756v-570l146 -34l7 -14l-15 -80h-475z" />
<glyph unicode="I" horiz-adv-x="683" d="M95 1411l14 81h476l4 -9l-10 -76l-144 -43v-1236l152 -34l7 -14l-15 -80h-475l-5 9l10 76l139 43v1236l-146 34z" />
<glyph unicode="J" horiz-adv-x="683" d="M39 -402q81 34 140 136q69 120 69 268v1362l-140 34l-6 13l13 81h476l5 -9l-9 -76l-151 -43v-1324q0 -352 -363 -528q-26 26 -34 86z" />
<glyph unicode="K" horiz-adv-x="1366" d="M80 9l10 76l143 45v1230l-139 33l-7 14l14 85h476l5 -9l-9 -81l-151 -42v-627l561 634l-139 28l-7 12l12 85h478l5 -9l-10 -78l-143 -50l-501 -532l534 -695l140 -34l4 -14l-13 -80h-479l-8 9l10 76l106 43l-412 565l-138 -141v-424l146 -34l7 -14l-15 -80h-475z" />
<glyph unicode="L" horiz-adv-x="1194" d="M78 9l9 76l144 43v1236l-141 34l-7 13l14 81h501l5 -9l-10 -76l-173 -43v-1247h503l92 254q14 3 33.5 3t43.5 -3l9 -371h-1018z" />
<glyph unicode="M" horiz-adv-x="2046" d="M111 9l10 76l153 43l56 1234l-179 31l-7 14l15 85h357l518 -1168l476 1168h379l16 -12l-18 -87l-184 -31l56 -1234l168 -34l7 -14l-15 -80h-494l-5 9l11 76l142 43l-47 1098l-468 -1125q-9 -22 -36 -38t-54 -16l-530 1155l-45 -1074l142 -34l7 -14l-14 -80h-412z" />
<glyph unicode="N" horiz-adv-x="1705" d="M89 1411l14 81h330l933 -1141v1011l-171 36l-6 13l13 81h411l5 -9l-10 -76l-125 -43v-1364q-18 -36 -59 -36l-1043 1288v-1124l136 -34l7 -14l-14 -80h-405l-4 9l9 76l153 43v1239l-167 31z" />
<glyph unicode="O" horiz-adv-x="1705" d="M126 685q0 134 27.5 237t78 192t120 162t154.5 124q176 108 357.5 108t310 -57t218.5 -157q187 -208 187 -533q0 -338 -223 -569q-140 -145 -332 -200q-96 -28 -226 -28t-259 58t-220.5 158.5t-142 235.5t-50.5 269zM331 784q0 -152 43.5 -282.5t119.5 -221.5 q155 -186 395 -186q219 0 349 146q136 153 136 429q0 325 -160 523q-150 188 -382 188q-234 0 -367 -153q-134 -155 -134 -443z" />
<glyph unicode="P" d="M58 11l12 74l141 43v1236l-139 34l-7 13l14 81h569q233 0 351 -116.5t118 -342.5q0 -223 -157 -343q-139 -107 -378 -107q-119 0 -182 9v-464l216 -34l7 -14l-14 -80h-544zM400 708q42 -7 136.5 -7t162.5 20t116 61q101 85 101 251q0 134 -82 232q-92 110 -257 110 q-94 0 -177 -20v-647z" />
<glyph unicode="Q" horiz-adv-x="1705" d="M126 685q0 134 27.5 237t78 192t120 162t154.5 124q176 108 357.5 108t310 -57t218.5 -157q187 -208 187 -533q0 -278 -158 -493q-153 -207 -395 -276q290 -153 573 -230q106 -29 209 -40q0 -92 -25.5 -136.5t-44.5 -59.5q-408 103 -744 328q-76 51 -145 111 q-6 -1 -12 -1h-12q-157 0 -286 58t-220.5 158.5t-142 235.5t-50.5 269zM331 784q0 -152 43.5 -282.5t119.5 -221.5q155 -186 395 -186q219 0 349 146q136 153 136 429q0 325 -160 523q-150 188 -382 188q-234 0 -367 -153q-134 -155 -134 -443z" />
<glyph unicode="R" horiz-adv-x="1366" d="M78 11l12 74l141 43v1236l-139 34l-7 13l14 81h579q479 0 479 -442q0 -162 -101 -268q-88 -93 -243 -128q86 -53 161 -187q32 -57 62 -116.5t66 -112.5q83 -120 193 -151l15 -19l-17 -68l-226 -23q-68 10 -161 194l-108 223q-100 202 -186 247q-132 0 -192 6v-519 l196 -34l7 -14l-14 -80h-524zM420 766q48 -8 144.5 -8t166 14.5t119.5 49.5q106 74 106 238q0 141 -87 226q-91 89 -262 89q-94 0 -187 -20v-589z" />
<glyph unicode="S" d="M134 94l70 313q9 1 18 1q33 0 61 -15q0 -125 11 -169q84 -76 210 -118q66 -21 133.5 -21t115 13.5t82.5 43.5q76 65 76 195q0 102 -117 185q-52 38 -119 72l-137 68q-176 89 -242 152.5t-98 127.5t-32 151.5t36 164.5t100 132q135 118 339 118q214 0 415 -117l-71 -312 q-9 -2 -18 -2q-27 0 -59 13q0 33 -2 63l-4 60q-2 30 -7 50q-145 115 -350 115q-103 0 -161 -64q-53 -57 -53 -139t32.5 -129t85 -86t119.5 -73l138 -70q180 -92 245.5 -156t98 -130.5t32.5 -158t-37.5 -168t-104.5 -130.5q-140 -110 -371 -110q-195 0 -333 65 q-62 28 -102 65z" />
<glyph unicode="T" horiz-adv-x="1362" d="M81 1177l38 315h1120l41 -315q-32 -17 -86 -17q-46 139 -75.5 166.5t-64.5 35.5t-92 8h-187v-1242l217 -43l7 -13l-15 -72h-616l-5 9l9 76l214 43v1242h-186q-110 0 -151 -38q-36 -34 -82 -172q-59 0 -86 17z" />
<glyph unicode="U" horiz-adv-x="1532" d="M50 1411l14 81h476l5 -9l-11 -76l-166 -43v-804q0 -238 101.5 -352t309.5 -114q177 0 297 106q125 111 125 299v865l-153 34l-7 13l14 81h422l5 -9l-9 -76l-144 -43v-872q0 -237 -161 -382q-164 -146 -435 -146q-267 0 -412 139q-142 136 -142 373v888l-122 34z" />
<glyph unicode="V" horiz-adv-x="1532" d="M2 1409l15 83h524l6 -9l-10 -81l-136 -45l400 -1193l391 1193l-143 36l-7 14l14 85h468l5 -9l-10 -81l-162 -42l-492 -1337q-75 -42 -187 -46l-499 1383l-169 33z" />
<glyph unicode="W" horiz-adv-x="2214" d="M-43 1411l14 81h496l5 -9l-9 -76l-130 -43l348 -1195l366 1231q62 62 178 66l368 -1304l363 1202l-132 34l-8 13l15 81h421l5 -9l-9 -76l-153 -43l-432 -1341q-72 -42 -185 -46l-370 1227l-355 -1181q-75 -42 -187 -46l-442 1387l-160 34z" />
<glyph unicode="X" horiz-adv-x="1362" d="M-25 9l9 76l142 43l443 635l-413 601l-139 34l-7 13l15 81h513l4 -9l-9 -76l-151 -43l315 -462l299 462l-140 34l-8 13l15 81h454l5 -9l-9 -76l-149 -43l-398 -561l466 -675l148 -34l7 -14l-13 -80h-513l-5 9l9 76l142 43l-368 534l-346 -534l148 -34l7 -14l-14 -80h-454 z" />
<glyph unicode="Y" d="M-59 1411l15 81h513l5 -9l-10 -76l-150 -43l310 -683l312 676l-146 41l-7 13l14 81h454l5 -9l-10 -76l-148 -43l-400 -805v-431l146 -34l7 -14l-14 -80h-476l-5 9l9 76l144 43v417l-422 819l-138 34z" />
<glyph unicode="Z" horiz-adv-x="1359" d="M72 85l935 1294h-700l-59 -210q-28 -8 -53 -8q-15 0 -28 3l-34 328h1117q5 -13 8 -27q3 -16 3 -31q0 -17 -4 -32l-914 -1289h728l58 210q28 7 47 7t36 -2l33 -328h-1145q-23 26 -28 85z" />
<glyph unicode="a" horiz-adv-x="1025" d="M79 285q0 111 59 163q56 51 202.5 73.5t231 33.5t94.5 13v86q0 269 -204 269q-101 0 -268 -63q-40 29 -40 86q208 102 363 102q309 0 309 -356v-503q0 -45 37 -45q22 0 132 11l11 -14l-23 -82l-276 -95l-14 15l-18 136l-60 -49q-126 -102 -207 -102t-143.5 28.5 t-104.5 74.5q-81 90 -81 218zM257 310q0 -130 107 -185q33 -17 67.5 -17t66 10t62 24t58.5 30l48 30v245q-175 0 -292 -21.5t-117 -115.5z" />
<glyph unicode="b" horiz-adv-x="1194" d="M1 1470l7 54l303 112l16 -9v-704q170 125 287 125t199.5 -37.5t140.5 -104.5q122 -139 122 -357q0 -243 -144 -412q-149 -173 -378 -173q-185 0 -386 95v1357l-160 40zM327 207q62 -76 171 -115q46 -16 107.5 -16t118 30t97.5 84q88 116 88 295q0 195 -95 304 q-93 106 -235 106t-252 -61v-627z" />
<glyph unicode="c" horiz-adv-x="1024" d="M102 474q0 238 162 406t389 168q170 0 263 -68q-5 -51 -31 -93.5t-56 -66.5q-137 115 -282 115q-113 0 -196 -118q-82 -117 -82 -280q0 -192 121 -311q107 -106 245 -106q155 0 258 107q56 -25 56 -74q-155 -145 -296 -181q-31 -8 -61 -8q-226 0 -361 148 q-129 141 -129 362z" />
<glyph unicode="d" horiz-adv-x="1195" d="M105 474q0 243 145 406q150 168 384 168q121 0 227 -43v411l-167 40l-11 14l11 54l310 112l16 -9v-1427q0 -21 7.5 -33t23.5 -12t37 2t44 5l52 5l12 -14l-24 -83l-268 -93l-15 14l-16 112q-109 -90 -209 -126q-37 -13 -69 -13q-226 0 -361 148q-129 141 -129 362z M273 537q0 -192 121 -311q107 -106 233.5 -106t233.5 71v624q-61 70 -163 106q-46 16 -109.5 16t-123 -28.5t-102.5 -80.5q-90 -109 -90 -291z" />
<glyph unicode="e" horiz-adv-x="1025" d="M80 474q0 236 155 406q71 78 164 123t188.5 45t162 -33.5t110.5 -90.5q88 -112 88 -286q0 -49 -9 -85q-11 -25 -411 -25q-133 0 -281 4q2 -191 123 -308q108 -104 244 -104t257 107q52 -21 57 -74q-153 -145 -308 -181q-34 -8 -69 -8q-210 0 -341 148q-130 145 -130 362z M252 624h78q300 0 438 19q0 107 -64 197q-70 97 -167 97q-106 0 -183 -79q-83 -83 -102 -234z" />
<glyph unicode="f" horiz-adv-x="683" d="M53 932q0 22 14 39l148 42v148q0 205 107 335q115 140 313 140q76 0 163 -34q-2 -49 -25 -90t-49 -61q-82 68 -215 68q-87 0 -122 -171q-12 -59 -12 -142v-201q105 0 272 10q5 -25 5 -55t-23 -63h-254v-769l211 -34l4 -14l-12 -80h-498l-7 9l10 76l132 43v769h-158 q-4 20 -4 35z" />
<glyph unicode="g" horiz-adv-x="1194" d="M118 -231q0 77 52 116l58 52q36 31 88 70q-87 49 -87 155q0 63 51 104q24 20 60 40l80 49q-170 59 -223 199q-18 47 -18 123t39 150t102 125q130 104 306 104l272 -11q139 0 211 29q27 -37 27 -71q0 -49 -11 -77q-21 -14 -52.5 -14t-51.5 6t-39 14q-49 23 -77 27l-7 -15 q74 -57 96 -174q7 -33 7 -88.5t-35 -123.5t-94 -118q-126 -108 -296 -108q-28 0 -73 5q-90 -51 -90 -99q0 -54 25 -75q46 -39 166 -51.5t214 -29t155 -46.5q120 -60 120 -215q0 -157 -139 -255q-142 -102 -366 -102q-221 0 -355 104q-115 89 -115 201zM282 -200 q0 -38 20.5 -80t61.5 -76q89 -75 245 -75q163 0 241 73q65 60 65 164q0 65 -71 92q-65 26 -197 40q-210 24 -268 41q-97 -67 -97 -179zM340 711q0 -121 78 -197q76 -74 186 -74q50 0 91 14.5t72 42.5q69 62 69 164q0 126 -80 208q-76 77 -183 77q-103 0 -169 -68 q-64 -66 -64 -167z" />
<glyph unicode="h" horiz-adv-x="1365" d="M105 1470l9 54l302 112l16 -9v-717q211 138 359 138q149 0 234 -98q81 -95 81 -255v-567l174 -34l7 -14l-12 -80h-475l-7 9l9 76l144 43v519q0 250 -203 250q-142 0 -311 -77v-692l161 -34l7 -14l-15 -80h-448l-4 9l9 76l130 43v1290l-158 40z" />
<glyph unicode="i" horiz-adv-x="682" d="M122 860l11 54l282 115l17 -9v-892l160 -34l4 -14l-11 -80h-448l-7 9l10 76l132 43v661l-139 59zM225 1312q0 33 9.5 54.5t25.5 39.5q36 40 84 40q44 0 74 -26q52 -45 52 -87q0 -45 -27.5 -73.5t-50.5 -39.5t-45.5 -11t-44 9.5t-38.5 25.5q-39 35 -39 68z" />
<glyph unicode="j" horiz-adv-x="684" d="M83 -450q79 33 139 137q68 118 68 268v834l-137 59l-9 12l9 54l281 115l16 -9v-1034q0 -213 -117 -356q-77 -95 -217 -165q-30 30 -33 85zM245 1311.5q0 33.5 9 55t25 39.5q36 40 84 40q45 0 73 -26q52 -45 52 -87q0 -45 -26 -73.5t-48.5 -39.5t-45.5 -11t-44.5 9.5 t-39.5 25.5q-39 34 -39 67.5z" />
<glyph unicode="k" d="M88 1470l9 54l302 112l16 -9v-1083l388 348l-141 29l-7 12l12 80h450l5 -10l-10 -73l-143 -47l-337 -278l423 -477l139 -34l5 -14l-11 -80h-448l-7 9l10 76l105 43l-332 383l-101 -84v-299l161 -34l7 -14l-15 -80h-448l-4 9l9 76l130 43v1288l-158 40z" />
<glyph unicode="l" horiz-adv-x="684" d="M97 1470l11 54l301 112l16 -9v-1499l160 -34l8 -14l-15 -80h-447l-5 9l9 76l130 43v1288l-157 40z" />
<glyph unicode="m" horiz-adv-x="2044" d="M149 869l10 54l263 106l17 -9v-123q230 151 376 151q195 0 274 -151q10 10 52 34l79 43q139 74 230.5 74t150.5 -24t99 -68q81 -89 81 -250v-578l174 -34l8 -14l-13 -80h-477l-4 9l9 76l143 43v531q0 238 -202 238q-146 0 -302 -72q15 -73 15 -119v-578l159 -34l7 -14 l-13 -80h-463l-4 9l9 76l144 43v531q0 238 -205 238q-139 0 -308 -77v-692l160 -34l4 -14l-11 -80h-448l-7 9l10 76l132 43v668l-139 61z" />
<glyph unicode="n" horiz-adv-x="1365" d="M122 869l10 54l263 106l17 -9v-123q230 151 376 151q150 0 234 -92q83 -90 83 -250v-578l173 -34l5 -14l-12 -80h-476l-4 9l9 76l144 43v531q0 238 -205 238q-139 0 -308 -77v-692l160 -34l4 -14l-11 -80h-448l-7 9l10 76l132 43v668l-139 61z" />
<glyph unicode="o" horiz-adv-x="1195" d="M88 490q0 113 42.5 216t115.5 179q157 163 373 163q223 0 358 -150q130 -144 130 -372q0 -238 -156 -402q-153 -160 -373 -160q-217 0 -356 153q-134 148 -134 373zM266 545.5q0 -101.5 32 -187.5t83 -149q108 -133 241 -133q220 0 284 208q23 73 23 178t-32.5 193 t-83 150.5t-112 97t-127 34.5t-124 -23.5t-99.5 -71.5t-63 -121.5t-22 -175z" />
<glyph unicode="p" d="M44 872l9 54l264 103l16 -9v-108q171 136 321 136q202 0 326 -142q121 -139 121 -357q0 -244 -145 -412q-69 -80 -165 -126.5t-203 -46.5t-236 36v-389l200 -35l5 -14l-11 -81h-488l-7 13l9 72l133 45v1185l-140 64zM352 207q63 -77 169 -115q47 -16 108.5 -16t118.5 30 t98 84q88 116 88 295q0 195 -96 304q-92 106 -273 106q-101 0 -213 -59v-629z" />
<glyph unicode="q" d="M105 474q0 243 145 406q150 168 381 168q157 0 299 -54l71 47l16 -9v-1421l139 -35l7 -14l-11 -81h-490l-5 13l9 72l191 45v476q-170 -123 -274 -123t-195 39.5t-154 108.5q-129 141 -129 362zM273 537q0 -192 121 -311q107 -106 233 -106t230 62v636q-60 68 -163 104 q-44 15 -106.5 15t-122 -28.5t-102.5 -80.5q-90 -109 -90 -291z" />
<glyph unicode="r" horiz-adv-x="853" d="M92 869l9 54l264 106l16 -9l19 -259q85 219 227 275q32 12 91 12t121 -33q-4 -134 -69 -202q-57 68 -134 68q-66 0 -159 -131q-40 -57 -77 -130v-492l251 -34l4 -14l-11 -80h-538l-7 9l9 76l133 43v668l-140 61z" />
<glyph unicode="s" horiz-adv-x="854" d="M87 40q7 92 73 153q98 -84 211 -115q39 -10 75.5 -10t69 8t56.5 26q55 38 55 98.5t-21.5 94.5t-57 60t-80.5 47l-94 42q-121 55 -165 100q-87 89 -87 209q0 126 104 211q101 84 252 84q142 0 266 -45q-7 -46 -31 -89.5t-50 -68.5q-128 99 -261 99q-89 0 -120 -86 q-10 -25 -10 -63t21.5 -72.5t57 -61.5t81.5 -49l92 -45q124 -60 167 -103q86 -88 86 -205q0 -131 -110 -215q-107 -80 -267 -80q-134 0 -208.5 27.5t-104.5 48.5z" />
<glyph unicode="t" horiz-adv-x="853" d="M69 931q0 21 15 40l146 51l73 270h68v-287q111 0 348 10q0 -5 1 -10l1 -25q0 -55 -24 -83h-326v-621q0 -67 26 -100q45 -59 103 -59q110 0 229 47q36 -22 40 -70q-176 -130 -292 -130q-136 0 -207 90q-62 79 -62 214v629h-131q-8 17 -8 34z" />
<glyph unicode="u" d="M85 885l9 55l243 89l16 -9v-667q0 -173 115 -220q43 -18 124 -18t235 90v593l-142 62l-6 12l6 54l283 103l19 -7v-822q0 -21 7.5 -33t23.5 -12t38 2l43 4q26 3 55 6l12 -14l-24 -83l-273 -93l-14 14l-12 124l-9 2l-48 -35q-79 -57 -149.5 -87.5t-130 -30.5t-121.5 24.5 t-105 69.5q-87 91 -87 250v517l-99 49z" />
<glyph unicode="v" d="M50 933l13 80h421l7 -10l-10 -73l-110 -38l259 -701l263 704l-138 26l-5 12l12 80h377l7 -10l-15 -82l-116 -29l-364 -874q-16 -32 -101 -41l-377 915l-115 29z" />
<glyph unicode="w" horiz-adv-x="1532" d="M-28 933l11 80h391l8 -10l-10 -73l-110 -38l206 -703l270 770q23 23 56.5 32.5t51.5 11.5l261 -808l226 700l-143 26l-7 12l11 80h370l4 -10l-13 -82l-97 -29l-322 -874q-20 -41 -102 -41l-273 749l-272 -708q-15 -24 -41 -31t-58 -10l-326 915l-85 29z" />
<glyph unicode="x" horiz-adv-x="1194" d="M62 9l10 83l126 25l334 406l-296 369l-118 29l-4 12l11 80h421l8 -10l-10 -73l-101 -38l188 -265l200 265l-122 29l-8 12l15 80h391l7 -10l-14 -82l-130 -29l-281 -346l333 -429l110 -23l7 -14l-12 -80h-423l-6 9l11 76l101 35l-219 322l-248 -325l128 -23l7 -14l-12 -80 h-397z" />
<glyph unicode="y" horiz-adv-x="1194" d="M62 933l11 80h416l7 -10l-10 -73l-111 -38l253 -730h9q63 155 112 288l84 233q40 116 70 212l-144 26l-5 12l12 80h377l7 -10l-14 -82l-106 -29l-296 -739q-53 -129 -110 -253l-103 -221l-107 -217q-56 0 -108 44q-23 19 -40 44q186 281 274 455l-356 887l-115 29z" />
<glyph unicode="z" horiz-adv-x="1024" d="M104 83l619 836h-405l-65 -205q-18 -9 -42 -9q-14 0 -30 3l-32 305h785q18 -32 18 -78l-625 -841h451l64 205q16 7 34.5 7t35.5 -2l33 -304h-827q-16 32 -16 62q0 11 2 21z" />
<glyph unicode="&#xaa;" horiz-adv-x="1025" d="M79 285q0 111 59 163q56 51 202.5 73.5t231 33.5t94.5 13v86q0 269 -204 269q-101 0 -268 -63q-40 29 -40 86q208 102 363 102q309 0 309 -356v-503q0 -45 37 -45q22 0 132 11l11 -14l-23 -82l-276 -95l-14 15l-18 136l-60 -49q-126 -102 -207 -102t-143.5 28.5 t-104.5 74.5q-81 90 -81 218zM257 310q0 -130 107 -185q33 -17 67.5 -17t66 10t62 24t58.5 30l48 30v245q-175 0 -292 -21.5t-117 -115.5z" />
<glyph unicode="&#xad;" horiz-adv-x="650" d="M115 506q-21 62 14 118h447q14 -58 -13 -118h-448z" />
<glyph unicode="&#xb2;" horiz-adv-x="1192" d="M140 101q366 246 498 394q114 129 114 244q0 89 -58 147q-63 63 -150 63q-190 0 -333 -118q-66 42 -66 92q162 131 357 165q45 7 106 7t127.5 -21t116.5 -60q107 -86 107 -230q0 -158 -136 -300q-90 -94 -226 -194l-250 -182q552 0 565 47l40 162q37 11 82 6l33 -323 h-892q-43 35 -35 101z" />
<glyph unicode="&#xb3;" horiz-adv-x="1023" d="M132 961q82 72 210 113q66 21 148.5 21t147 -23t109.5 -64q93 -85 93 -219q0 -223 -289 -358q209 -13 305 -117q77 -85 77 -224q0 -211 -175 -340q-165 -122 -395 -122q-100 0 -181 33q-27 11 -45 26v9q0 92 51 146q77 -77 186 -104q34 -9 80.5 -9t100.5 25t95 68 q88 94 88 226q0 145 -88 226q-77 70 -171 70t-156 -19q-24 37 -24 63q0 33 2 39q214 64 302 209q35 57 35 114.5t-12.5 93.5t-37.5 64q-55 60 -146 60q-90 0 -153 -34t-91 -60q-61 25 -66 87z" />
<glyph unicode="&#xb9;" horiz-adv-x="851" d="M101 856l11 86l444 155l25 -26l-43 -167v-776l233 -34l7 -14l-14 -80h-644l-4 9l9 76l253 43v763l-270 -49z" />
<glyph unicode="&#xba;" horiz-adv-x="1195" d="M88 490q0 113 42.5 216t115.5 179q157 163 373 163q223 0 358 -150q130 -144 130 -372q0 -238 -156 -402q-153 -160 -373 -160q-217 0 -356 153q-134 148 -134 373zM266 545.5q0 -101.5 32 -187.5t83 -149q108 -133 241 -133q220 0 284 208q23 73 23 178t-32.5 193 t-83 150.5t-112 97t-127 34.5t-124 -23.5t-99.5 -71.5t-63 -121.5t-22 -175z" />
<glyph unicode="&#x152;" horiz-adv-x="3066" d="M1792 9l9 76l144 43v1232l-139 33l-7 14l14 85h1036l-34 -304q-14 -3 -28 -3q-25 0 -55 8l-58 182h-540v-554h407l50 142q14 3 33 3t44 -3v-402q-21 -3 -40.5 -3t-36.5 3l-50 141h-407v-585h583l85 243q17 5 36.5 5t41.5 -5l9 -360h-1092zM126 685q0 134 27.5 237t78 192 t120 162t154.5 124q176 108 357.5 108t310 -57t218.5 -157q187 -208 187 -533q0 -338 -223 -569q-140 -145 -332 -200q-96 -28 -226 -28t-259 58t-220.5 158.5t-142 235.5t-50.5 269zM331 784q0 -152 43.5 -282.5t119.5 -221.5q155 -186 395 -186q219 0 349 146 q136 153 136 429q0 325 -160 523q-150 188 -382 188q-234 0 -367 -153q-134 -155 -134 -443z" />
<glyph unicode="&#x153;" horiz-adv-x="2220" d="M1275 474q0 236 155 406q71 78 164 123t188.5 45t162 -33.5t110.5 -90.5q88 -112 88 -286q0 -49 -9 -85q-11 -25 -411 -25q-133 0 -281 4q2 -191 123 -308q108 -104 244 -104t257 107q52 -21 57 -74q-153 -145 -308 -181q-34 -8 -69 -8q-210 0 -341 148 q-130 145 -130 362zM1447 624h78q300 0 438 19q0 107 -64 197q-70 97 -167 97q-106 0 -183 -79q-83 -83 -102 -234zM88 490q0 113 42.5 216t115.5 179q157 163 373 163q223 0 358 -150q130 -144 130 -372q0 -238 -156 -402q-153 -160 -373 -160q-217 0 -356 153 q-134 148 -134 373zM266 545.5q0 -101.5 32 -187.5t83 -149q108 -133 241 -133q220 0 284 208q23 73 23 178t-32.5 193t-83 150.5t-112 97t-127 34.5t-124 -23.5t-99.5 -71.5t-63 -121.5t-22 -175z" />
<glyph unicode="&#x2000;" horiz-adv-x="818" />
<glyph unicode="&#x2001;" horiz-adv-x="1636" />
<glyph unicode="&#x2002;" horiz-adv-x="818" />
<glyph unicode="&#x2003;" horiz-adv-x="1636" />
<glyph unicode="&#x2004;" horiz-adv-x="545" />
<glyph unicode="&#x2005;" horiz-adv-x="409" />
<glyph unicode="&#x2006;" horiz-adv-x="272" />
<glyph unicode="&#x2007;" horiz-adv-x="272" />
<glyph unicode="&#x2008;" horiz-adv-x="204" />
<glyph unicode="&#x2009;" horiz-adv-x="327" />
<glyph unicode="&#x200a;" horiz-adv-x="90" />
<glyph unicode="&#x2010;" horiz-adv-x="650" d="M115 506q-21 62 14 118h447q14 -58 -13 -118h-448z" />
<glyph unicode="&#x2011;" horiz-adv-x="650" d="M115 506q-21 62 14 118h447q14 -58 -13 -118h-448z" />
<glyph unicode="&#x2012;" horiz-adv-x="650" d="M115 506q-21 62 14 118h447q14 -58 -13 -118h-448z" />
<glyph unicode="&#x2013;" horiz-adv-x="1024" d="M107 506v118h848v-118h-848z" />
<glyph unicode="&#x2014;" horiz-adv-x="2048" d="M107 506v118h1872v-118h-1872z" />
<glyph unicode="&#x2026;" horiz-adv-x="1536" d="M1157 93q0 22 9 44t25 39q36 40 70 40t57 -9t42 -25q42 -35 42 -67.5t-10 -54.5t-28 -40q-39 -41 -88 -41q-42 0 -69.5 25t-38.5 46t-11 43zM645 93q0 22 9 44t25 39q36 40 70 40t57 -9t42 -25q42 -35 42 -67.5t-10 -54.5t-28 -40q-39 -41 -88 -41q-42 0 -69.5 25 t-38.5 46t-11 43zM133 93q0 22 9 44t25 39q36 40 70 40t57 -9t42 -25q42 -35 42 -67.5t-10 -54.5t-28 -40q-39 -41 -88 -41q-42 0 -69.5 25t-38.5 46t-11 43z" />
<glyph unicode="&#x202f;" horiz-adv-x="327" />
<glyph unicode="&#x205f;" horiz-adv-x="409" />
<glyph unicode="&#x2122;" horiz-adv-x="3408" d="M1473 9l10 76l153 43l56 1234l-179 31l-7 14l15 85h357l518 -1168l476 1168h379l16 -12l-18 -87l-184 -31l56 -1234l168 -34l7 -14l-15 -80h-494l-5 9l11 76l142 43l-47 1098l-468 -1125q-9 -22 -36 -38t-54 -16l-530 1155l-45 -1074l142 -34l7 -14l-14 -80h-412z M81 1177l38 315h1120l41 -315q-32 -17 -86 -17q-46 139 -75.5 166.5t-64.5 35.5t-92 8h-187v-1242l217 -43l7 -13l-15 -72h-616l-5 9l9 76l214 43v1242h-186q-110 0 -151 -38q-36 -34 -82 -172q-59 0 -86 17z" />
<glyph unicode="&#xe000;" horiz-adv-x="1014" d="M0 1015h1015v-1015h-1015v1015z" />
<glyph unicode="&#xfb01;" horiz-adv-x="1365" d="M805 860l11 54l282 115l17 -9v-892l160 -34l4 -14l-11 -80h-448l-7 9l10 76l132 43v661l-139 59zM908 1312q0 33 9.5 54.5t25.5 39.5q36 40 84 40q44 0 74 -26q52 -45 52 -87q0 -45 -27.5 -73.5t-50.5 -39.5t-45.5 -11t-44 9.5t-38.5 25.5q-39 35 -39 68zM53 932 q0 22 14 39l148 42v148q0 205 107 335q115 140 313 140q76 0 163 -34q-2 -49 -25 -90t-49 -61q-82 68 -215 68q-87 0 -122 -171q-12 -59 -12 -142v-201q105 0 272 10q5 -25 5 -55t-23 -63h-254v-769l211 -34l4 -14l-12 -80h-498l-7 9l10 76l132 43v769h-158q-4 20 -4 35z " />
<glyph unicode="&#xfb02;" horiz-adv-x="1367" d="M780 1470l11 54l301 112l16 -9v-1499l160 -34l8 -14l-15 -80h-447l-5 9l9 76l130 43v1288l-157 40zM53 932q0 22 14 39l148 42v148q0 205 107 335q115 140 313 140q76 0 163 -34q-2 -49 -25 -90t-49 -61q-82 68 -215 68q-87 0 -122 -171q-12 -59 -12 -142v-201 q105 0 272 10q5 -25 5 -55t-23 -63h-254v-769l211 -34l4 -14l-12 -80h-498l-7 9l10 76l132 43v769h-158q-4 20 -4 35z" />
<glyph unicode="&#xfb03;" horiz-adv-x="2048" d="M1488 860l11 54l282 115l17 -9v-892l160 -34l4 -14l-11 -80h-448l-7 9l10 76l132 43v661l-139 59zM1591 1312q0 33 9.5 54.5t25.5 39.5q36 40 84 40q44 0 74 -26q52 -45 52 -87q0 -45 -27.5 -73.5t-50.5 -39.5t-45.5 -11t-44 9.5t-38.5 25.5q-39 35 -39 68zM736 932 q0 22 14 39l148 42v148q0 205 107 335q115 140 313 140q76 0 163 -34q-2 -49 -25 -90t-49 -61q-82 68 -215 68q-87 0 -122 -171q-12 -59 -12 -142v-201q105 0 272 10q5 -25 5 -55t-23 -63h-254v-769l211 -34l4 -14l-12 -80h-498l-7 9l10 76l132 43v769h-158q-4 20 -4 35z M53 932q0 22 14 39l148 42v148q0 205 107 335q115 140 313 140q76 0 163 -34q-2 -49 -25 -90t-49 -61q-82 68 -215 68q-87 0 -122 -171q-12 -59 -12 -142v-201q105 0 272 10q5 -25 5 -55t-23 -63h-254v-769l211 -34l4 -14l-12 -80h-498l-7 9l10 76l132 43v769h-158 q-4 20 -4 35z" />
<glyph unicode="&#xfb04;" horiz-adv-x="2050" d="M1463 1470l11 54l301 112l16 -9v-1499l160 -34l8 -14l-15 -80h-447l-5 9l9 76l130 43v1288l-157 40zM736 932q0 22 14 39l148 42v148q0 205 107 335q115 140 313 140q76 0 163 -34q-2 -49 -25 -90t-49 -61q-82 68 -215 68q-87 0 -122 -171q-12 -59 -12 -142v-201 q105 0 272 10q5 -25 5 -55t-23 -63h-254v-769l211 -34l4 -14l-12 -80h-498l-7 9l10 76l132 43v769h-158q-4 20 -4 35zM53 932q0 22 14 39l148 42v148q0 205 107 335q115 140 313 140q76 0 163 -34q-2 -49 -25 -90t-49 -61q-82 68 -215 68q-87 0 -122 -171q-12 -59 -12 -142 v-201q105 0 272 10q5 -25 5 -55t-23 -63h-254v-769l211 -34l4 -14l-12 -80h-498l-7 9l10 76l132 43v769h-158q-4 20 -4 35z" />
</font>
</defs>
</svg>
